# xmcd
#
# Track frame offsets:
#	150
#	14832
#	28616
#	42957
#	57512
#	72554
#	82887
#	96039
#	107594
#	121545
#	137081
#	147658
#	158610
#	170131
#	182888
#	196705
#	210072
#	222470
#
# Disc length: 3141 seconds
#
# Revision: 0
# Processed by: cddbd v1.5.2PL0 Copyright (c) Steve Scherf et al.
# Submitted via: EasyCDDAExtractor 16.0.6.1
#
DISCID=000c4312
DTITLE=Μαρκάκης Μπάμπης - Τραγούδια 45 στροφές-Μαρκάκης Μπάμπης 1
DYEAR=2001
DGENRE=Λαϊκή
TTITLE0=Μαρκάκης Μπάμπης-Καλάκη Ρούλα - Μη μού μιλάς γι' αγάπη [Μπάμπης Μπακάλ
TTITLE0=ης]
TTITLE1=Μαρκάκης Μπάμπης-Κολλητήρη Σοφία - Πληγωμένοι κι οι δυό [Μπάμπης Μπακά
TTITLE1=λης]
TTITLE2=Μαρκάκης Μπάμπης-Χρηστάκης - Μαύρη κατάρα [Μ. Μπαλτόπουλος]
TTITLE3=Μαρκάκης Μπάμπης-Κούρτη Ρία - Έδειξες ποια ήσουνα [Μπάμπης Μπακάλης]
TTITLE4=Μαρκάκης Μπάμπης - Μεγάλη θλίψη [Μ. Μπαλτόπουλος]
TTITLE5=Μαρκάκης Μπάμπης - Μπουζούκι και τουΐστ [Μπάμπης Μπακάλης]
TTITLE6=Μαρκάκης Μπάμπης-Καλάκη Ρούλα - Στη θάλασσα και στη στεριά [Μπάμπης Μπ
TTITLE6=ακάλης]
TTITLE7=Μαρκάκης Μπάμπης-Κάρολ Κατ.-Παπαχατζή Πάολα - Ένα χαστούκι [Μπάμπης Μα
TTITLE7=ρκάκης]
TTITLE8=Μαρκάκης Μπάμπης - Δεν πίστευα ν' αγανακτήσεις [Μπάμπης Μπακάλης]
TTITLE9=Μαρκάκης Μπάμπης-Κάρολ Κατ.-Παπαχατζή Πάολα - Δάκρυ και θολό νερό [Μπά
TTITLE9=μπης Μαρκάκης]
TTITLE10=Μαρκάκης Μπάμπης-Καλάκη Ρούλα - Μη χειρότερα Θεέ μου [Μπάμπης Μπακάλη
TTITLE10=ς]
TTITLE11=Μαρκάκης Μπάμπης-Καλάκη Ρούλα - Ποιος ξέρει από αγάπη [Μπάμπης Μπακάλ
TTITLE11=ης]
TTITLE12=Μαρκάκης Μπάμπης-Μανταλένα - Στου χωρισμού το μαρτύριο [Μπάμπης Μπακά
TTITLE12=λης]
TTITLE13=Μαρκάκης Μπάμπης-Καλάκη Ρούλα - Από τώρα και μπρος [Μπάμπης Μπακάλης]
TTITLE14=Μαρκάκης Μπάμπης - Γράψε αλλοίμονο σε σένα [Μπάμπης Μπακάλης]
TTITLE15=Μαρκάκης Μπάμπης - Καράβι με μαύρα πανιά [Μπάμπης Μπακάλης]
TTITLE16=Μαρκάκης Μπάμπης-Καλάκη Ρούλα - Χιλιάδες μπόρες έχω περάσει [Μπάμπης 
TTITLE16=Μπακάλης]
TTITLE17=Μαρκάκης Μπάμπης-Καλάκη Ρούλα - Τα δακρυσμένα μάτια μου [Μπάμπης Μπακ
TTITLE17=άλης]
EXTD=
EXTT0=
EXTT1=
EXTT2=
EXTT3=
EXTT4=
EXTT5=
EXTT6=
EXTT7=
EXTT8=
EXTT9=
EXTT10=
EXTT11=
EXTT12=
EXTT13=
EXTT14=
EXTT15=
EXTT16=
EXTT17=
PLAYORDER=
